<?xml version="1.0" encoding="UTF-8"?><svg width="24" height="24" viewBox="0 0 48 48" fill="none" xmlns="http://www.w3.org/2000/svg"><g transform="translate(0 12.5) scale(0.74)"><circle cx="24" cy="12" r="8" fill="none" stroke="#343434" stroke-width="2" stroke-linecap="round" stroke-linejoin="round"/><path d="M42 44C42 34.0589 33.9411 26 24 26C14.0589 26 6 34.0589 6 44" stroke="#343434" stroke-width="2" stroke-linecap="round" stroke-linejoin="round"/></g><circle cx="33.00" cy="15.00" r="11" fill="#FFFFFF"/><g transform="translate(21 3) scale(0.5)"><path d="M24 4C16.268 4 10 10.268 10 18V38H38V18C38 10.268 31.732 4 24 4Z" fill="none"/><path d="M10 38V18C10 10.268 16.268 4 24 4C31.732 4 38 10.268 38 18V38M4 38H44" stroke="#343434" stroke-width="2" stroke-linecap="round" stroke-linejoin="round"/><path d="M24 44C26.7614 44 29 41.7614 29 39V38H19V39C19 41.7614 21.2386 44 24 44Z" fill="none" stroke="#343434" stroke-width="2" stroke-linecap="round" stroke-linejoin="round"/></g></svg>
